<svg xmlns="http://www.w3.org/2000/svg" xmlns:xlink="http://www.w3.org/1999/xlink" preserveAspectRatio="xMidYMid" width="938.5" height="366" viewBox="0 0 3754 1464">
  <defs>
    <style>

      .cls-2 {
        filter: url(#color-overlay-1);
      }

      .cls-3 {
        fill: #ffffff;
      }

      .cls-4 {
        stroke: #ffffff;
        stroke-width: 72px;
        fill: none;
      }
    </style>

    <filter id="color-overlay-1" filterUnits="userSpaceOnUse">
      <feFlood flood-color="#5193CF" flood-opacity="1"/>
      <feComposite operator="in" in2="SourceGraphic"/>
      <feBlend mode="normal" in2="SourceGraphic" result="colorOverlay"/>
    </filter>
  </defs>
  <g id="logosvg" class="cls-2">
    <path d="M3723.558,898.766 C3703.601,914.314 3687.876,922.084 3676.384,922.084 C3665.224,922.084 3646.963,915.669 3621.601,902.822 C3624.644,888.628 3630.898,869.539 3640.369,845.540 C3646.456,837.770 3657.441,828.812 3673.340,818.674 C3689.231,808.535 3700.557,803.466 3707.326,803.466 C3718.144,803.466 3728.630,809.803 3738.775,822.476 C3748.920,835.148 3753.993,847.742 3753.993,860.241 C3753.993,870.379 3743.848,883.226 3723.558,898.766 ZM3264.844,934.757 C3259.431,934.757 3241.170,918.536 3210.061,886.093 C3178.945,853.318 3158.148,836.923 3147.670,836.923 C3147.670,837.604 3110.807,851.797 3037.090,879.504 C2961.677,907.558 2913.655,921.577 2893.032,921.577 C2876.118,921.577 2857.350,913.300 2836.727,896.739 C2816.097,880.185 2805.785,864.637 2805.785,850.102 C2805.785,812.591 2846.872,768.830 2929.046,718.811 C3006.148,671.502 3064.989,647.843 3105.568,647.843 C3122.474,647.843 3137.691,657.475 3151.221,676.738 C3151.221,676.738 3151.221,698.535 3151.221,698.535 C3144.452,708.341 3136.677,713.235 3127.887,713.235 C3126.191,713.235 3120.358,711.042 3110.387,706.646 C3100.409,702.258 3094.409,700.056 3092.380,700.056 C3078.851,700.056 3047.908,713.917 2999.554,741.623 C2953.560,767.650 2922.785,787.079 2907.235,799.918 C2891.677,813.438 2881.698,828.812 2877.307,846.047 C2889.140,857.199 2903.177,862.775 2919.409,862.775 C2927.857,862.775 2968.611,848.756 3041.655,820.701 C3114.358,792.314 3158.322,778.120 3173.539,778.120 C3195.858,778.120 3211.916,783.697 3221.728,794.849 C3224.090,797.557 3232.713,812.765 3247.597,840.471 C3258.757,861.429 3272.278,880.351 3288.177,897.245 C3288.177,897.245 3288.177,920.057 3288.177,920.057 C3281.076,929.854 3273.293,934.757 3264.844,934.757 ZM2771.718,707.659 C2771.718,714.423 2772.559,723.714 2774.255,735.540 C2777.972,767.309 2786.761,827.465 2800.632,916.001 C2799.950,919.043 2794.204,922.417 2783.385,926.140 C2781.356,926.472 2779.494,926.647 2777.805,926.647 C2742.298,926.647 2719.298,885.761 2708.820,803.973 C2708.479,802.286 2708.313,798.904 2708.313,793.835 C2708.313,777.954 2709.153,745.345 2710.849,696.000 C2713.211,632.470 2716.088,566.064 2719.472,496.783 C2720.487,470.423 2724.370,421.427 2731.139,349.778 C2737.559,284.219 2740.776,235.555 2740.776,203.786 C2740.776,106.799 2747.196,39.039 2760.052,0.513 C2760.052,0.513 2767.660,0.006 2767.660,0.006 C2768.675,0.006 2769.515,0.006 2770.197,0.006 C2781.689,0.006 2789.472,6.430 2793.530,19.269 C2796.574,27.720 2799.784,39.546 2803.168,54.753 C2803.168,54.753 2774.255,695.493 2774.255,695.493 C2772.559,696.848 2771.718,700.903 2771.718,707.659 ZM2688.449,771.531 C2688.449,772.545 2688.449,773.733 2688.449,775.079 C2688.449,783.871 2687.767,796.037 2686.420,811.577 C2669.506,851.457 2647.362,911.613 2619.970,992.039 C2610.840,1001.836 2592.912,1035.293 2566.202,1092.408 C2566.876,1092.067 2567.217,1091.727 2567.217,1091.394 C2567.217,1091.394 2567.217,1091.901 2567.217,1091.901 C2567.217,1092.915 2557.579,1119.441 2538.304,1171.486 C2527.818,1199.533 2513.448,1235.690 2495.187,1279.966 C2492.818,1291.451 2489.101,1310.888 2484.028,1338.261 C2483.347,1342.990 2478.956,1355.496 2470.840,1375.773 C2464.071,1392.327 2460.695,1404.834 2460.695,1413.285 C2460.695,1416.326 2461.369,1419.027 2462.724,1421.395 C2456.296,1432.207 2444.288,1446.401 2426.709,1463.976 C2426.709,1463.976 2404.390,1463.976 2404.390,1463.976 C2394.245,1445.046 2389.173,1431.193 2389.173,1422.409 C2389.173,1388.953 2411.492,1314.943 2456.130,1200.381 C2473.709,1155.091 2495.354,1102.879 2521.057,1043.744 C2529.506,1028.536 2543.202,1000.482 2562.144,959.596 C2568.564,939.652 2575.333,922.084 2582.434,906.877 C2588.854,897.079 2599.847,869.706 2615.405,824.757 C2614.391,823.743 2613.883,822.056 2613.883,819.687 C2613.883,816.313 2614.724,811.917 2616.420,806.508 C2617.093,803.807 2617.434,801.613 2617.434,799.918 C2617.434,796.544 2616.245,794.849 2613.883,794.849 C2610.840,794.849 2590.550,802.452 2553.014,817.660 C2515.477,832.867 2495.520,840.471 2493.158,840.471 C2486.057,840.471 2468.890,842.673 2441.673,847.061 C2414.448,851.457 2398.977,853.651 2395.260,853.651 C2367.868,853.651 2343.013,831.521 2320.694,787.245 C2301.078,748.387 2291.274,712.903 2291.274,680.793 C2291.274,671.336 2296.172,657.308 2305.984,638.719 C2305.984,638.719 2335.405,638.719 2335.405,638.719 C2360.426,743.484 2395.593,795.863 2440.912,795.863 C2479.122,795.863 2525.115,776.093 2578.883,736.554 C2578.883,736.554 2669.173,670.148 2669.173,670.148 C2691.151,677.926 2702.144,693.133 2702.144,715.770 C2702.144,719.493 2699.941,729.124 2695.550,744.664 C2690.811,760.885 2688.449,769.844 2688.449,771.531 ZM2322.135,920.057 C2315.034,929.854 2307.250,934.757 2298.802,934.757 C2293.388,934.757 2275.128,918.536 2244.019,886.093 C2212.902,853.318 2192.105,836.923 2181.628,836.923 C2181.628,837.604 2144.765,851.797 2071.048,879.504 C1995.634,907.558 1947.612,921.577 1926.990,921.577 C1910.076,921.577 1891.308,913.300 1870.685,896.739 C1850.054,880.185 1839.743,864.637 1839.743,850.102 C1839.743,812.591 1880.830,768.830 1963.004,718.811 C2040.106,671.502 2098.947,647.843 2139.526,647.843 C2156.432,647.843 2171.649,657.475 2185.178,676.738 C2185.178,676.738 2185.178,698.535 2185.178,698.535 C2178.410,708.341 2170.635,713.235 2161.845,713.235 C2160.149,713.235 2154.316,711.042 2144.345,706.646 C2134.366,702.258 2128.367,700.056 2126.338,700.056 C2112.808,700.056 2081.866,713.917 2033.511,741.623 C1987.518,767.650 1956.743,787.079 1941.193,799.918 C1925.634,813.438 1915.656,828.812 1911.265,846.047 C1923.098,857.199 1937.135,862.775 1953.367,862.775 C1961.815,862.775 2002.569,848.756 2075.613,820.701 C2148.316,792.314 2192.280,778.120 2207.497,778.120 C2229.816,778.120 2245.874,783.697 2255.686,794.849 C2258.048,797.557 2266.671,812.765 2281.555,840.471 C2292.715,861.429 2306.236,880.351 2322.135,897.245 C2322.135,897.245 2322.135,920.057 2322.135,920.057 ZM2051.766,424.959 C1968.910,492.212 1815.389,637.863 1591.185,861.919 C1657.460,909.237 1748.939,944.380 1865.606,967.357 C1877.780,969.726 1951.497,988.141 2086.766,1022.611 C2103.331,1026.666 2135.121,1034.444 2182.128,1045.929 C2185.505,1046.943 2204.273,1060.463 2238.433,1086.482 C2230.317,1102.030 2220.339,1109.801 2208.505,1109.801 C2202.751,1109.801 2189.055,1105.412 2167.418,1096.621 C2141.374,1086.150 2126.157,1080.233 2121.766,1078.879 C2102.824,1074.150 2074.251,1069.928 2036.041,1066.206 C1990.048,1061.818 1961.476,1058.095 1950.317,1055.054 C1896.548,1041.874 1830.432,1026.500 1751.983,1008.925 C1715.120,1000.814 1667.946,981.218 1610.461,950.122 C1540.120,911.937 1504.954,880.509 1504.954,855.836 C1504.954,850.767 1549.084,810.214 1637.345,734.177 C1733.381,651.383 1784.272,607.115 1790.026,601.365 C1795.432,592.922 1804.229,580.922 1816.403,565.374 C1819.780,562.333 1847.345,537.161 1899.084,489.844 C1940.679,451.659 1975.172,421.585 2002.563,399.613 C2045.172,365.143 2083.041,340.138 2116.186,324.589 C2120.918,328.985 2126.157,331.520 2131.911,332.193 C2131.911,332.193 2131.911,369.198 2131.911,369.198 C2131.911,369.198 2127.346,371.733 2127.346,371.733 C2101.643,387.281 2076.447,405.023 2051.766,424.959 ZM1457.780,1133.119 C1452.366,1138.520 1442.562,1141.229 1428.359,1141.229 C1404.344,1141.229 1392.344,1132.612 1392.344,1115.377 C1392.344,1108.620 1397.583,1064.178 1408.069,982.058 C1412.460,951.310 1425.482,862.600 1447.127,715.928 C1450.844,685.853 1457.946,631.954 1468.432,554.222 C1477.221,493.059 1489.903,440.507 1506.475,396.571 C1527.439,400.967 1537.924,414.820 1537.924,438.138 C1537.924,441.861 1537.750,445.235 1537.417,448.277 C1537.417,448.277 1457.780,1133.119 1457.780,1133.119 Z" id="path-1" class="cls-3" fill-rule="evenodd"/>
    <path d="M36.000,226.549 C36.000,226.549 1262.333,226.549 1262.333,226.549 C1262.333,226.549 980.667,945.554 980.667,945.554 C980.667,945.554 1262.333,1318.052 1262.333,1318.052 C1262.333,1318.052 36.000,1318.052 36.000,1318.052 C36.000,1318.052 36.000,226.549 36.000,226.549 Z" id="path-2" class="cls-4" fill-rule="evenodd"/>
  </g>
</svg>
